# xmcd
#
# Track frame offsets:
# 150
# 21600
# 38550
# 59925
# 74325
# 91875
# 111075
# 134625
# 152925
# 181125
# 197475
# 220575
# 235050
#
# Disc length: 3386 seconds
#
#
# Revision: 0
# Processed by: cddbd v1.5.2PL0 Copyright (c) Steve Scherf et al.
# Submitted via: Nero 7, 11, 10, 0 
#
DISCID=bb0d380d
DTITLE=Johnny 'V' Vernazza - Feel Like Goin' Home
DYEAR=2002
DGENRE=Blues
TTITLE0=Bird In A Blue Heart
TTITLE1=Walk With The Mommy
TTITLE2=Dust My Broom
TTITLE3=Why Did Ya?
TTITLE4=Albert Shuffle
TTITLE5=Rather Be Blind
TTITLE6=Howlin' With The Wolf
TTITLE7=Walk Away
TTITLE8=That Was Yesterday
TTITLE9=Crazy 'Bout An Automobile
TTITLE10=Real Blues
TTITLE11=Feel Like Goin' Home
TTITLE12=On My Way
EXTD=
EXTT0=Bird In A Blue Heart
EXTT1=Walk With The Mommy
EXTT2=Dust My Broom
EXTT3=Why Did Ya?
EXTT4=Albert Shuffle
EXTT5=Rather Be Blind
EXTT6=Howlin' With The Wolf
EXTT7=Walk Away
EXTT8=That Was Yesterday
EXTT9=Crazy 'Bout An Automobile
EXTT10=Real Blues
EXTT11=Feel Like Goin' Home
EXTT12=On My Way
PLAYORDER=
